<svg width="108" height="26" viewBox="0 0 108 26" fill="none" xmlns="http://www.w3.org/2000/svg">
<path d="M0.78125 7.78906V5H13.9219V7.78906H9.02344V21H5.67969V7.78906H0.78125ZM14.7773 21V9H18.0039V11.0937H18.1289C18.3477 10.349 18.7148 9.78646 19.2305 9.40625C19.7461 9.02083 20.3398 8.82812 21.0117 8.82812C21.1784 8.82812 21.3581 8.83854 21.5508 8.85937C21.7435 8.88021 21.9128 8.90885 22.0586 8.94531V11.8984C21.9023 11.8516 21.6862 11.8099 21.4102 11.7734C21.1341 11.737 20.8815 11.7188 20.6523 11.7188C20.1628 11.7188 19.7253 11.8255 19.3398 12.0391C18.9596 12.2474 18.6576 12.5391 18.4336 12.9141C18.2148 13.2891 18.1055 13.7214 18.1055 14.2109V21H14.7773ZM28.6895 21.2344C27.4551 21.2344 26.3926 20.9844 25.502 20.4844C24.6165 19.9792 23.9342 19.2656 23.4551 18.3437C22.9759 17.4167 22.7363 16.3203 22.7363 15.0547C22.7363 13.8203 22.9759 12.737 23.4551 11.8047C23.9342 10.8724 24.6087 10.1458 25.4785 9.625C26.3535 9.10417 27.3796 8.84375 28.5566 8.84375C29.3483 8.84375 30.0853 8.97135 30.7676 9.22656C31.4551 9.47656 32.054 9.85417 32.5645 10.3594C33.0801 10.8646 33.4811 11.5 33.7676 12.2656C34.054 13.026 34.1973 13.9167 34.1973 14.9375V15.8516H24.0645V13.7891H31.0645C31.0645 13.3099 30.9603 12.8854 30.752 12.5156C30.5436 12.1458 30.2546 11.8568 29.8848 11.6484C29.5202 11.4349 29.0957 11.3281 28.6113 11.3281C28.1061 11.3281 27.6582 11.4453 27.2676 11.6797C26.8822 11.9089 26.5801 12.2187 26.3613 12.6094C26.1426 12.9948 26.0306 13.4245 26.0254 13.8984V15.8594C26.0254 16.4531 26.1348 16.9661 26.3535 17.3984C26.5775 17.8307 26.8926 18.1641 27.2988 18.3984C27.7051 18.6328 28.1868 18.75 28.7441 18.75C29.1139 18.75 29.4525 18.6979 29.7598 18.5938C30.0671 18.4896 30.3301 18.3333 30.5488 18.125C30.7676 17.9167 30.9342 17.6615 31.0488 17.3594L34.127 17.5625C33.9707 18.3021 33.6504 18.9479 33.166 19.5C32.6868 20.0469 32.0671 20.474 31.3066 20.7813C30.5514 21.0833 29.679 21.2344 28.6895 21.2344ZM36.3691 21V9H39.6973V21H36.3691ZM38.041 7.45312C37.5462 7.45312 37.1217 7.28906 36.7676 6.96094C36.4186 6.6276 36.2441 6.22917 36.2441 5.76562C36.2441 5.30729 36.4186 4.91406 36.7676 4.58594C37.1217 4.2526 37.5462 4.08594 38.041 4.08594C38.5358 4.08594 38.9577 4.2526 39.3066 4.58594C39.6608 4.91406 39.8379 5.30729 39.8379 5.76562C39.8379 6.22917 39.6608 6.6276 39.3066 6.96094C38.9577 7.28906 38.5358 7.45312 38.041 7.45312ZM45.6914 14.0625V21H42.3633V9H45.5352V11.1172H45.6758C45.9414 10.4193 46.3867 9.86719 47.0117 9.46094C47.6367 9.04948 48.3945 8.84375 49.2852 8.84375C50.1185 8.84375 50.8451 9.02604 51.4648 9.39062C52.0846 9.75521 52.5664 10.276 52.9102 10.9531C53.2539 11.625 53.4258 12.4271 53.4258 13.3594V21H50.0977V13.9531C50.1029 13.2187 49.9154 12.6458 49.5352 12.2344C49.1549 11.8177 48.6315 11.6094 47.9648 11.6094C47.5169 11.6094 47.1211 11.7057 46.7773 11.8984C46.4388 12.0911 46.1732 12.3724 45.9805 12.7422C45.793 13.1068 45.6966 13.5469 45.6914 14.0625ZM61.5176 21.2344C60.2832 21.2344 59.2207 20.9844 58.3301 20.4844C57.4447 19.9792 56.7624 19.2656 56.2832 18.3437C55.804 17.4167 55.5645 16.3203 55.5645 15.0547C55.5645 13.8203 55.804 12.737 56.2832 11.8047C56.7624 10.8724 57.4368 10.1458 58.3066 9.625C59.1816 9.10417 60.2077 8.84375 61.3848 8.84375C62.1764 8.84375 62.9134 8.97135 63.5957 9.22656C64.2832 9.47656 64.8822 9.85417 65.3926 10.3594C65.9082 10.8646 66.3092 11.5 66.5957 12.2656C66.8822 13.026 67.0254 13.9167 67.0254 14.9375V15.8516H56.8926V13.7891H63.8926C63.8926 13.3099 63.7884 12.8854 63.5801 12.5156C63.3717 12.1458 63.0827 11.8568 62.7129 11.6484C62.3483 11.4349 61.9238 11.3281 61.4395 11.3281C60.9342 11.3281 60.4863 11.4453 60.0957 11.6797C59.7103 11.9089 59.4082 12.2187 59.1895 12.6094C58.9707 12.9948 58.8587 13.4245 58.8535 13.8984V15.8594C58.8535 16.4531 58.9629 16.9661 59.1816 17.3984C59.4056 17.8307 59.7207 18.1641 60.127 18.3984C60.5332 18.6328 61.015 18.75 61.5723 18.75C61.9421 18.75 62.2806 18.6979 62.5879 18.5938C62.8952 18.4896 63.1582 18.3333 63.377 18.125C63.5957 17.9167 63.7624 17.6615 63.877 17.3594L66.9551 17.5625C66.7988 18.3021 66.4785 18.9479 65.9941 19.5C65.515 20.0469 64.8952 20.474 64.1348 20.7813C63.3796 21.0833 62.5072 21.2344 61.5176 21.2344ZM71.1426 21.2031C70.627 21.2031 70.1842 21.0208 69.8145 20.6562C69.4499 20.2865 69.2676 19.8437 69.2676 19.3281C69.2676 18.8177 69.4499 18.3802 69.8145 18.0156C70.1842 17.651 70.627 17.4687 71.1426 17.4687C71.6426 17.4687 72.0801 17.651 72.4551 18.0156C72.8301 18.3802 73.0176 18.8177 73.0176 19.3281C73.0176 19.6719 72.929 19.987 72.752 20.2734C72.5801 20.5547 72.3535 20.7812 72.0723 20.9531C71.791 21.1198 71.4811 21.2031 71.1426 21.2031ZM75.75 21V9H78.9219V11.1172H79.0625C79.3125 10.4141 79.7292 9.85937 80.3125 9.45312C80.8958 9.04687 81.5938 8.84375 82.4063 8.84375C83.2292 8.84375 83.9297 9.04948 84.5078 9.46094C85.0859 9.86719 85.4714 10.4193 85.6641 11.1172H85.7891C86.0339 10.4297 86.4766 9.88021 87.1172 9.46875C87.763 9.05208 88.526 8.84375 89.4063 8.84375C90.526 8.84375 91.4349 9.20052 92.1328 9.91406C92.8359 10.6224 93.1875 11.6276 93.1875 12.9297V21H89.8672V13.5859C89.8672 12.9193 89.6901 12.4193 89.3359 12.0859C88.9818 11.7526 88.5391 11.5859 88.0078 11.5859C87.4036 11.5859 86.9323 11.7786 86.5938 12.1641C86.2552 12.5443 86.0859 13.0469 86.0859 13.6719V21H82.8594V13.5156C82.8594 12.9271 82.6901 12.4583 82.3516 12.1094C82.0182 11.7604 81.5781 11.5859 81.0313 11.5859C80.6615 11.5859 80.3281 11.6797 80.0313 11.8672C79.7396 12.0495 79.5078 12.3073 79.3359 12.6406C79.1641 12.9687 79.0781 13.3542 79.0781 13.7969V21H75.75ZM101.285 21.2344C100.051 21.2344 98.9883 20.9844 98.0977 20.4844C97.2122 19.9792 96.5299 19.2656 96.0508 18.3437C95.5716 17.4167 95.332 16.3203 95.332 15.0547C95.332 13.8203 95.5716 12.737 96.0508 11.8047C96.5299 10.8724 97.2044 10.1458 98.0742 9.625C98.9492 9.10417 99.9753 8.84375 101.152 8.84375C101.944 8.84375 102.681 8.97135 103.363 9.22656C104.051 9.47656 104.65 9.85417 105.16 10.3594C105.676 10.8646 106.077 11.5 106.363 12.2656C106.65 13.026 106.793 13.9167 106.793 14.9375V15.8516H96.6602V13.7891H103.66C103.66 13.3099 103.556 12.8854 103.348 12.5156C103.139 12.1458 102.85 11.8568 102.48 11.6484C102.116 11.4349 101.691 11.3281 101.207 11.3281C100.702 11.3281 100.254 11.4453 99.8633 11.6797C99.4779 11.9089 99.1758 12.2187 98.957 12.6094C98.7383 12.9948 98.6263 13.4245 98.6211 13.8984V15.8594C98.6211 16.4531 98.7305 16.9661 98.9492 17.3984C99.1732 17.8307 99.4883 18.1641 99.8945 18.3984C100.301 18.6328 100.783 18.75 101.34 18.75C101.71 18.75 102.048 18.6979 102.355 18.5938C102.663 18.4896 102.926 18.3333 103.145 18.125C103.363 17.9167 103.53 17.6615 103.645 17.3594L106.723 17.5625C106.566 18.3021 106.246 18.9479 105.762 19.5C105.283 20.0469 104.663 20.474 103.902 20.7813C103.147 21.0833 102.275 21.2344 101.285 21.2344Z" fill="#89C5CC"/>
</svg>
